<mxfile host="65bd71144e">
    <diagram id="jnQ5miasbXVnqwzZPXiH" name="Page-1">
        <mxGraphModel dx="677" dy="414" grid="1" gridSize="10" guides="1" tooltips="1" connect="1" arrows="1" fold="1" page="1" pageScale="1" pageWidth="1169" pageHeight="827" math="0" shadow="0">
            <root>
                <mxCell id="0"/>
                <mxCell id="1" parent="0"/>
                <mxCell id="4" value="#" style="edgeStyle=orthogonalEdgeStyle;html=1;entryX=0;entryY=0.5;entryDx=0;entryDy=0;exitX=0;exitY=0.5;exitDx=0;exitDy=0;exitPerimeter=0;" edge="1" parent="1" source="2" target="3">
                    <mxGeometry relative="1" as="geometry">
                        <Array as="points">
                            <mxPoint x="60" y="225"/>
                            <mxPoint x="60" y="325"/>
                        </Array>
                    </mxGeometry>
                </mxCell>
                <mxCell id="7" value="【" style="edgeStyle=orthogonalEdgeStyle;html=1;exitX=0;exitY=0.5;exitDx=0;exitDy=0;exitPerimeter=0;entryX=0;entryY=0.5;entryDx=0;entryDy=0;" edge="1" parent="1" source="2" target="6">
                    <mxGeometry x="-0.1034" y="10" relative="1" as="geometry">
                        <Array as="points">
                            <mxPoint x="60" y="225"/>
                            <mxPoint x="60" y="115"/>
                        </Array>
                        <mxPoint as="offset"/>
                    </mxGeometry>
                </mxCell>
                <mxCell id="2" value="行首" style="html=1;dashed=0;whitespace=wrap;shape=mxgraph.dfd.start" vertex="1" parent="1">
                    <mxGeometry x="95" y="210" width="50" height="30" as="geometry"/>
                </mxCell>
                <mxCell id="5" value="char" style="edgeStyle=orthogonalEdgeStyle;html=1;exitX=1;exitY=0.5;exitDx=0;exitDy=0;entryX=1;entryY=0.5;entryDx=0;entryDy=0;entryPerimeter=0;" edge="1" parent="1" source="3" target="2">
                    <mxGeometry relative="1" as="geometry">
                        <mxPoint x="150" y="240" as="targetPoint"/>
                        <Array as="points">
                            <mxPoint x="180" y="325"/>
                            <mxPoint x="180" y="225"/>
                        </Array>
                    </mxGeometry>
                </mxCell>
                <mxCell id="3" value="" style="rounded=1;whiteSpace=wrap;html=1;" vertex="1" parent="1">
                    <mxGeometry x="95" y="300" width="50" height="50" as="geometry"/>
                </mxCell>
                <mxCell id="10" value="】" style="html=1;exitX=1;exitY=0.5;exitDx=0;exitDy=0;entryX=0;entryY=0.5;entryDx=0;entryDy=0;edgeStyle=orthogonalEdgeStyle;" edge="1" parent="1" source="6" target="11">
                    <mxGeometry x="0.0909" y="10" relative="1" as="geometry">
                        <mxPoint x="120" y="210" as="targetPoint"/>
                        <mxPoint as="offset"/>
                    </mxGeometry>
                </mxCell>
                <mxCell id="6" value="书名起" style="rounded=1;whiteSpace=wrap;html=1;" vertex="1" parent="1">
                    <mxGeometry x="95" y="90" width="50" height="50" as="geometry"/>
                </mxCell>
                <mxCell id="8" value="char" style="edgeStyle=orthogonalEdgeStyle;curved=1;html=1;exitX=0.25;exitY=0;exitDx=0;exitDy=0;entryX=0.75;entryY=0;entryDx=0;entryDy=0;" edge="1" parent="1" source="6" target="6">
                    <mxGeometry x="-0.3661" y="-5" relative="1" as="geometry">
                        <Array as="points">
                            <mxPoint x="120" y="40"/>
                        </Array>
                        <mxPoint as="offset"/>
                    </mxGeometry>
                </mxCell>
                <mxCell id="11" value="书名终" style="rounded=1;whiteSpace=wrap;html=1;" vertex="1" parent="1">
                    <mxGeometry x="220" y="90" width="50" height="50" as="geometry"/>
                </mxCell>
            </root>
        </mxGraphModel>
    </diagram>
</mxfile>